# xmcd
#
# Track frame offsets:
# 150
# 20239
# 33913
# 51777
# 70108
# 91003
# 109470
# 125095
# 139249
# 152818
#
# Disc length: 2217 seconds
#
#
# Revision: 0
# Processed by: cddbd v1.5.1PL2 Copyright (c) Steve Scherf et al.
# Submitted via: FreeRIP 2.945 
#
DISCID=8b08a70a
DTITLE=Silverwind - A Song In The Night
DYEAR=1982
DGENRE=Contemporary Christian
TTITLE0=A Song In The Night
TTITLE1=Daybreak
TTITLE2=Elya
TTITLE3=Cinderella's Dream
TTITLE4=Forgiven
TTITLE5=A New Beginneng
TTITLE6=Destiny
TTITLE7=Colors
TTITLE8=Love Came Softly
TTITLE9=The Rider
EXTD=MCA,\nSparrow Reconds, Inc.
EXTT0=
EXTT1=
EXTT2=
EXTT3=
EXTT4=
EXTT5=
EXTT6=
EXTT7=
EXTT8=
EXTT9=
PLAYORDER=
